<svg xmlns="http://www.w3.org/2000/svg" viewBox="0 0 292 75" class="fill-current">
	<path d="M20.4167 72.1667c-4.1 0-7.625-.7812-10.5834-2.354-2.9583-1.5834-5.23-3.646-6.8125-6.1875-1.5728-2.552-2.354-5.2188-2.354-8v-.4584h9.625v.375c0 2.2656.9063 4.2917 2.7292 6.0834 1.8334 1.7916 4.3855 2.6875 7.6667 2.6875 2.7083 0 4.9427-.6563 6.7083-1.9792 1.7604-1.3177 2.646-3.1094 2.646-5.375 0-1.9583-.698-3.4844-2.0834-4.5833-1.375-1.0938-3.1406-1.8386-5.2916-2.2292l-6.2292-.9375c-4.0312-.625-7.4583-2.052-10.2917-4.2917-2.8333-2.2343-4.25-5.5-4.25-9.7916 0-4.65 1.6666-8.27 5-10.8542 3.3437-2.5833 7.656-3.875 12.9374-3.875 3.8438 0 7.1875.7083 10.02 2.125s4.9687 3.2917 6.4166 5.625c1.4584 2.3333 2.1875 4.8542 2.1875 7.5625v.375h-9.6458v-.1875c0-1.8854-.7604-3.7136-2.27-5.4792-1.5-1.7604-3.828-2.6458-6.98-2.6458-2.6563 0-4.802.6614-6.4375 1.9792-1.625 1.323-2.4375 3.052-2.4375 5.1875 0 1.8333.6875 3.323 2.0625 4.4583 1.3854 1.125 3.125 1.85 5.2083 2.1667l6.7917 1.23c4.15.75 7.6302 2.2292 10.4375 4.4375 2.802 2.198 4.2083 5.4063 4.2083 9.625 0 3.0313-.823 5.7084-2.4583 8.0417-1.6406 2.323-3.9115 4.1146-6.8125 5.375-2.8906 1.2604-6.125 1.8958-9.7083 1.8958zm29.2758-71.125h9.8125v29.1875h.7708c1.1928-2.776 3.146-5.1094 5.8542-7 2.7084-1.8854 6.0417-2.8333 10-2.8333 4.2917 0 7.8177 1.0312 10.5834 3.0833 2.776 2.0417 4.7916 4.6563 6.0416 7.8333 1.2605 3.1823 1.8958 6.5625 1.8958 10.146V71.5h-9.73V42.875c0-4.526-1.1562-7.9843-3.4583-10.375-2.2917-2.4-5.3646-3.604-9.2083-3.604-3.7813 0-6.85 1.2656-9.2084 3.7916C60.682 35.2032 59.505 38.6 59.505 42.875V71.5h-9.8125zM151.1417 71.5h-9.8334v-8.98h-.6667c-1.25 2.7812-3.203 5.1145-5.8542 7-2.6406 1.8906-5.85 2.8333-9.625 2.8333-4.2813 0-7.7605-1.0208-10.4376-3.0625-2.6822-2.052-4.6197-4.672-5.8124-7.8542-1.198-3.177-1.7917-6.5312-1.7917-10.0625v-29.646h9.7292v28.2292c0 4.4166 1.0937 7.854 3.2916 10.3125 2.2084 2.448 5.1354 3.6666 8.7917 3.6666 3.8437 0 6.8646-1.302 9.0625-3.9166 2.2084-2.6094 3.3125-5.9636 3.3125-10.0625V21.7292h9.8334zm26.2546.375c-4.0312 0-7.02-.625-8.9792-1.875-1.948-1.2604-3.177-2.8854-3.6875-4.875-.5-1.9843-.75-4.552-.75-7.7083l.104-56.75h9.7292v55.0625c0 2.3333.1042 4.073.3125 5.2083.2188 1.125.8334 2.0365 1.8333 2.7292 1.0105.698 2.625 1.0417 4.8334 1.0417 1.1927 0 2.2605-.0938 3.2083-.2917v6.9792l-6.604.48zm23.8837.2917c-1.7656 0-3.2292-.6-4.396-1.7917-1.1562-1.2083-1.73-2.6562-1.73-4.354 0-1.6927.573-3.125 1.73-4.2917 1.1667-1.1667 2.6303-1.75 4.396-1.75 1.7604 0 3.2292.5833 4.3958 1.75s1.75 2.6 1.75 4.2917c0 1.698-.5833 3.1458-1.75 4.354-1.1666 1.1927-2.6354 1.7917-4.3958 1.7917zm21.0683-50.4375h9.7292V71.5h-9.7292zm4.8334-9.0834c-1.7084 0-3.1354-.5625-4.27-1.6875-1.125-1.1354-1.6875-2.552-1.6875-4.25 0-1.7083.5625-3.125 1.6875-4.25C224.0463 1.323 225.4733.75 227.1817.75c1.6927 0 3.104.5833 4.23 1.75 1.1354 1.1667 1.7084 2.573 1.7084 4.2083 0 1.6407-.573 3.0417-1.7084 4.2084-1.125 1.1562-2.5364 1.73-4.23 1.73zm40.319 59.521c-5.1 0-9.4115-1.1927-12.9375-3.5833-3.5313-2.4-6.1615-5.5677-7.8958-9.5-1.724-3.9427-2.5834-8.177-2.5834-12.7083 0-4.5938.8594-8.8594 2.5834-12.7917 1.7343-3.9427 4.3645-7.125 7.8958-9.5417 3.526-2.427 7.8385-3.6458 12.9375-3.6458 5.0938 0 9.4063 1.2187 12.9375 3.6458 3.526 2.4167 6.172 5.6 7.9375 9.5417 1.7604 3.9323 2.6458 8.1615 2.6458 12.6875 0 4.5417-.8854 8.7864-2.6458 12.7292-1.7656 3.9323-4.4115 7.1146-7.9375 9.5416-3.5312 2.4167-7.8437 3.625-12.9375 3.625zm0-8.125c4.3438 0 7.7292-1.698 10.1458-5.104 2.427-3.4 3.6458-7.65 3.6458-12.75 0-5.0938-1.2187-9.3125-3.6458-12.646-2.4166-3.3437-5.802-5.0208-10.1458-5.0208-4.2812 0-7.6458 1.6875-10.1042 5.0625-2.4583 3.3646-3.6875 7.5625-3.6875 12.6042 0 5.1 1.2084 9.35 3.625 12.75 2.427 3.4062 5.8177 5.104 10.1667 5.104zm0 0"/>
</svg>